<svg xmlns="http://www.w3.org/2000/svg" viewBox="0 0 64 64">
    <symbol xmlns="http://www.w3.org/2000/svg" viewBox="0 0 64 64" fill="none" id="97504">
        <path
            d="M7.5 54.9001L31.5 63.4001C31.55 63.4001 31.6 63.4501 31.65 63.4501C31.7 63.4501 31.7 63.4501 31.75 63.4501C31.8 63.4501 31.85 63.4501 31.95 63.4501H32C32.1 63.4501 32.15 63.4501 32.25 63.4501H32.3C32.35 63.4501 32.4 63.4001 32.45 63.4001L56.45 54.9001C57.05 54.7001 57.45 54.1001 57.45 53.5001V36.7001L62.45 34.9501C62.85 34.8001 63.2 34.4501 63.35 34.0501C63.5 33.6501 63.45 33.1501 63.2 32.7501L57.2 22.7501C57.2 22.7501 57.2 22.7501 57.2 22.7001C57.2 22.6501 57.15 22.6501 57.15 22.6001C57.15 22.6001 57.15 22.6001 57.15 22.5501C57.15 22.5001 57.1 22.5001 57.1 22.4501L57.05 22.4001C57.05 22.4001 57.05 22.4001 57 22.3501C57 22.3501 57 22.3501 56.95 22.3501C56.9 22.3501 56.9 22.3001 56.85 22.3001L56.8 22.2501C56.8 22.2501 56.8 22.2501 56.75 22.2501H56.7C56.65 22.2501 56.65 22.2001 56.6 22.2001C56.55 22.2001 56.55 22.2001 56.5 22.1501C56.5 22.1501 56.5 22.1501 56.45 22.1501L32.45 13.6501C32.35 13.6001 32.25 13.6001 32.15 13.6001H32.1C32 13.6001 31.95 13.6001 31.85 13.6001C31.8 13.6001 31.8 13.6001 31.75 13.6001C31.65 13.6001 31.55 13.6501 31.45 13.6501L7.45 22.1501C7.45 22.1501 7.4 22.1501 7.4 22.2001C7.35 22.2501 7.25 22.2501 7.2 22.3001C7.1 22.3501 7 22.4501 6.9 22.5501L6.85 22.6001C6.8 22.6501 6.8 22.7001 6.75 22.7001C6.75 22.7001 6.75 22.7001 6.7 22.7501L0.7 32.7501C0.5 33.1001 0.45 33.6001 0.6 34.0001C0.75 34.4001 1.1 34.7501 1.5 34.9001L6.5 36.6501V53.5001C6.5 54.1501 6.9 54.7001 7.5 54.9001ZM54.5 52.4501L33.5 59.9001V47.8501C33.5 47.0001 32.85 46.3501 32 46.3501C31.15 46.3501 30.5 47.0001 30.5 47.8501V59.9001L9.5 52.4501V37.7501L25.5 43.4001C25.65 43.4501 25.85 43.5001 26 43.5001C26.5 43.5001 27 43.2501 27.3 42.7501L32 34.9001L36.7 42.7501C37 43.2501 37.5 43.5001 38 43.5001C38.15 43.5001 38.35 43.4501 38.5 43.4001L54.5 37.7501V52.4501ZM33.5 17.1001L51.5 23.5001L33.5 29.9001V17.1001ZM38.65 40.2001L34.2 32.8001L55.3 25.3001L59.75 32.7001L38.65 40.2001ZM8.65 25.3001L29.75 32.8001L25.3 40.2001L4.2 32.7001L8.65 25.3001Z"
            fill="#ffff"></path>
    </symbol>
    <use href="#97504"></use>
</svg>