<svg xmlns="http://www.w3.org/2000/svg" width="512" height="512" viewBox="0 0 512 512"
    style="overflow: visible;"
    data-bbox="23.732603269555057 83.12528994187034 459.5477569532244 302.31806057230364">
    <rect data-uid="o_fa2nghn18_6" data-fl-background="" x="0" y="0" width="512" height="512"
        fill="#4b836b" />
    <g
        transform="matrix(0.2851501405239105, 0, 0, 0.2851501405239105, 158.66879272460938, 83.125244140625)"
        fill="rgba(243,226,140,1)" data-uid="o_fa2nghn18_7">
        <path
            d="m90.125 325.105469h-80.109375c-5.519531 0-9.9960938 4.476562-9.9960938 9.996093 0 5.523438 4.4765628 10 9.9960938 10h80.109375c86.496094 0 156.863281 70.367188 156.863281 156.863282 0 5.523437 4.476563 10 10 10 5.519531 0 10-4.476563 10-10 0-97.523438-79.339843-176.859375-176.863281-176.859375zm0 0"
            transform="matrix(1.3333327770233154, 0, 0, 1.3333327770233154, 0, 0.00015333328337874264)"
            fill="rgba(243,226,140,1)" data-uid="o_fa2nghn18_8" />
        <path
            d="m90.125 405.097656h-80.109375c-5.519531 0-9.9960938 4.476563-9.9960938 10 0 5.523438 4.4765628 10 9.9960938 10h80.109375c42.386719 0 76.867188 34.480469 76.867188 76.867188 0 5.523437 4.476562 10 10 10 5.523437 0 10-4.476563 10-10 0-53.414063-43.453126-96.867188-96.867188-96.867188zm0 0"
            transform="matrix(1.3333327770233154, 0, 0, 1.3333327770233154, 0, 0.00015333328337874264)"
            fill="rgba(243,226,140,1)" data-uid="o_fa2nghn18_9" />
        <path
            d="m501.984375 245.109375h-3.828125c11.816406-13.734375 16.453125-32.117187 12.414062-50.027344-.847656-3.765625-3.789062-6.703125-7.554687-7.554687-19.335937-4.359375-39.238281 1.390625-53.230469 15.382812-2.542968 2.542969-4.808594 5.28125-6.796875 8.175782-1.988281-2.890626-4.253906-5.632813-6.796875-8.175782-13.992187-13.992187-33.890625-19.742187-53.230468-15.382812-3.765626.851562-6.707032 3.789062-7.554688 7.554687-4.265625 18.910157 1.140625 38.347657 14.460938 52.28125-45.152344 5.992188-87.824219 23.855469-123.867188 51.976563v-75.507813c3.789062.445313 7.574219.675781 11.339844.675781 25.164062-.003906 49.457031-9.878906 67.726562-28.148437 23.429688-23.429687 33.058594-56.753906 25.753906-89.140625-.851562-3.765625-3.789062-6.707031-7.554687-7.554688-20.457031-4.613281-41.28125-2.464843-59.757813 5.640626 1.742188-7.273438 2.65625-14.820313 2.65625-22.515626 0-33.136718-16.753906-63.503906-44.820312-81.242187-3.261719-2.0625-7.421875-2.0625-10.683594 0-28.066406 17.738281-44.820312 48.105469-44.820312 81.242187 0 7.695313.914062 15.242188 2.65625 22.519532-18.476563-8.109375-39.300782-10.257813-59.757813-5.644532-3.765625.847657-6.707031 3.789063-7.554687 7.554688-7.304688 32.386719 2.324218 65.710938 25.753906 89.140625 18.269531 18.269531 42.558594 28.148437 67.726562 28.148437 3.765626 0 7.550782-.230468 11.335938-.675781v73.949219c-36.066406-27.652344-78.476562-45.050781-123.613281-50.671875 13.140625-13.917969 18.449219-33.234375 14.210937-52.027344-.847656-3.765625-3.789062-6.703125-7.554687-7.554687-19.335938-4.359375-39.238281 1.390625-53.230469 15.382812-2.542969 2.542969-4.808594 5.28125-6.796875 8.175782-1.988281-2.890626-4.253906-5.632813-6.796875-8.175782-13.996094-13.992187-33.894531-19.742187-53.234375-15.382812-3.765625.851562-6.707031 3.789062-7.554687 7.554687-4.039063 17.910157.597656 36.292969 12.414062 50.027344h-3.828125c-5.519531 0-9.9960938 4.476563-9.9960938 10s4.4765628 10 9.9960938 10h80.109375c130.605469 0 236.855469 106.253906 236.855469 236.855469 0 .6875.070312 1.363281.203125 2.015625.933594 4.554687 4.964844 7.984375 9.796875 7.984375 5.523437 0 10-4.476563 10-10 0-42.386719 34.484375-76.867188 76.867187-76.867188h78.136719c5.519531 0 9.996094-4.476562 9.996094-10 0-5.523437-4.476563-10-9.996094-10h-78.136719c-34.503906 0-64.847656 18.136719-82.007812 45.375-4.601563-22.738281-12.253906-44.621094-22.746094-65.160156 28.859375-25.984375 65.773438-40.210938 104.753906-40.210938h38.136719c5.523437 0 10-4.476562 10-10 0-5.519531-4.476563-9.996093-10-9.996093h-38.136719c-42.46875 0-82.757812 14.96875-114.78125 42.394531-10.429687-16.90625-22.890625-32.726562-37.289062-47.128906 42.589844-35.710938 96.179687-55.261719 152.070312-55.261719h78.136719c5.519531 0 9.996094-4.476563 9.996094-10s-4.476563-10-9.996094-10zm-38.058594-28.058594c7.511719-7.511719 17.640625-11.363281 28.03125-10.910156.46875 10.390625-3.394531 20.519531-10.910156 28.035156-6.960937 6.960938-16.167969 10.78125-25.753906 10.933594h-.917969c-.453125-.003906-.90625-.003906-1.359375-.023437-.015625-.386719-.015625-.769532-.023437-1.152344.003906-.398438.003906-.800782 0-1.199219.171874-9.554687 3.988281-18.738281 10.933593-25.683594zm-69.910156-10.910156c10.386719-.457031 20.519531 3.398437 28.035156 10.910156 6.941407 6.945313 10.761719 16.128907 10.933594 25.683594-.003906.398437-.007813.796875-.003906 1.199219-.003907.382812-.003907.765625-.019531 1.152344-.472657.019531-.941407.019531-1.414063.023437h-.816406c-9.601563-.148437-18.832031-3.960937-25.804688-10.9375-7.511719-7.511719-11.375-17.640625-10.910156-28.03125zm-105.75-66.582031c17.011719-17.015625 40.621094-24.835938 64.207031-21.550782 3.285156 23.585938-4.535156 47.195313-21.546875 64.207032-13.765625 13.765625-31.851562 21.511718-50.746093 22.226562l34.886718-34.882812c3.902344-3.90625 3.902344-10.238282 0-14.144532-3.90625-3.902343-10.238281-3.902343-14.140625 0l-34.886719 34.886719c.628907-16.574219 6.667969-32.519531 17.429688-45.476562.273438-.324219.550781-.640625.820312-.96875 1.265626-1.472657 2.585938-2.90625 3.976563-4.296875zm-32.265625-117.410156c19 14.355468 30.164062 36.578124 30.164062 60.640624 0 19.464844-7.308593 37.726563-20.164062 51.597657v-45.894531c0-5.519532-4.476562-10-10-10s-10 4.480468-10 10v45.894531c-12.851562-13.867188-20.164062-32.132813-20.164062-51.597657 0-24.0625 11.164062-46.285156 30.164062-60.640624zm-96.472656 95.859374c23.585937-3.28125 47.195312 4.539063 64.207031 21.550782 1.390625 1.386718 2.710937 2.824218 3.976563 4.300781.269531.324219.546874.640625.820312.964844 10.761719 12.957031 16.800781 28.902343 17.429688 45.476562l-34.882813-34.882812c-3.90625-3.90625-10.238281-3.90625-14.144531 0-3.902344 3.902343-3.902344 10.234375 0 14.140625l34.886718 34.886718c-18.894531-.71875-36.980468-8.460937-50.742187-22.226562-17.015625-17.015625-24.835937-40.625-21.550781-64.210938zm-69.574219 99.042969c7.511719-7.511719 17.644531-11.363281 28.03125-10.910156.464844 10.390625-3.398437 20.519531-10.910156 28.035156-6.964844 6.960938-16.175781 10.78125-25.757813 10.933594h-.914062c-.453125-.003906-.90625-.003906-1.359375-.023437-.019531-.386719-.015625-.769532-.023438-1.152344.003907-.398438.003907-.800782-.003906-1.199219.175781-9.554687 3.992187-18.738281 10.9375-25.683594zm-59 17.121094c-7.511719-7.511719-11.375-17.640625-10.910156-28.03125 10.390625-.460937 20.519531 3.398437 28.03125 10.910156 6.945312 6.941407 10.765625 16.125 10.9375 25.683594-.003907.398437-.007813.796875-.003907 1.195313-.003906.386718-.003906.769531-.023437 1.152343-.46875.023438-.941406.023438-1.410156.027344h-.816407c-9.601562-.148437-18.832031-3.960937-25.804687-10.9375zm0 0"
            transform="matrix(1.3333327770233154, 0, 0, 1.3333327770233154, 0, 0.00015333328337874264)"
            fill="rgba(243,226,140,1)" data-uid="o_fa2nghn18_10" />
        <path
            d="m501.984375 325.105469c-2.632813 0-5.210937 1.0625-7.070313 2.929687-1.859374 1.859375-2.929687 4.429688-2.929687 7.070313 0 2.628906 1.070313 5.210937 2.929687 7.070312 1.859376 1.859375 4.4375 2.929688 7.070313 2.929688 2.628906 0 5.207031-1.070313 7.066406-2.929688 1.863281-1.859375 2.929688-4.441406 2.929688-7.070312 0-2.640625-1.066407-5.210938-2.929688-7.070313-1.859375-1.867187-4.4375-2.929687-7.066406-2.929687zm0 0"
            transform="matrix(1.3333327770233154, 0, 0, 1.3333327770233154, 0, 0.00015333328337874264)"
            fill="rgba(243,226,140,1)" data-uid="o_fa2nghn18_11" />
    </g>
    <path text="AgroMachina" fill="rgba(243,226,140,1)" space="preserve" text-anchor="middle"
        offset="0.5" font-scale="contain" font-size="29" font-family="Audiowide"
        transform="matrix(2.0117220878601074, 0, 0, 2.0117220878601074, 255.27577882051264, 351.7517836140897)"
        data-fl-textpath="" font-style="normal" font-weight="400" data-uid="o_fa2nghn18_12"
        d="M-83.504-18.45L-83.504 0L-87.184 0L-87.184-4.98L-100.124-4.98L-100.124 0L-103.804 0L-103.804-10.15Q-103.804-12.38 -103.044-14.25Q-102.274-16.11 -100.924-17.46Q-99.564-18.8 -97.704-19.56Q-95.854-20.31 -93.654-20.31L-93.654-20.31L-85.354-20.31Q-84.974-20.31 -84.634-20.16Q-84.294-20.02 -84.044-19.77Q-83.784-19.51 -83.644-19.17Q-83.504-18.83 -83.504-18.45L-83.504-18.45ZM-100.124-10.15L-100.124-8.67L-87.184-8.67L-87.184-16.62L-93.654-16.62Q-93.824-16.62 -94.374-16.57Q-94.914-16.52 -95.634-16.33Q-96.344-16.13 -97.134-15.72Q-97.934-15.31 -98.594-14.58Q-99.264-13.86 -99.694-12.78Q-100.124-11.7 -100.124-10.15L-100.124-10.15ZM-63.069-10.15L-63.069 1.47Q-63.069 2.42 -63.309 3.18Q-63.549 3.94 -63.949 4.51Q-64.339 5.08 -64.869 5.49Q-65.389 5.89 -65.969 6.15Q-66.539 6.4 -67.129 6.52Q-67.709 6.64 -68.239 6.64L-68.239 6.64L-74.879 6.64L-74.879 2.96L-68.239 2.96Q-67.489 2.96 -67.119 2.58Q-66.749 2.19 -66.749 1.47L-66.749 1.47L-66.749-10.15Q-66.749-10.88 -67.119-11.25Q-67.489-11.63 -68.239-11.63L-68.239-11.63L-74.879-11.63Q-75.559-11.63 -75.959-11.21Q-76.349-10.79 -76.349-10.15L-76.349-10.15L-76.349-5.17Q-76.349-4.45 -75.969-4.06Q-75.589-3.68 -74.849-3.68L-74.849-3.68L-68.239-3.68L-68.239 0L-74.879 0Q-75.399 0 -75.979-0.12Q-76.559-0.24 -77.139-0.5Q-77.709-0.75 -78.239-1.15Q-78.759-1.56 -79.159-2.13Q-79.549-2.7 -79.789-3.46Q-80.029-4.22 -80.029-5.17L-80.029-5.17L-80.029-10.15Q-80.029-10.68 -79.909-11.26Q-79.789-11.84 -79.539-12.41Q-79.279-12.98 -78.879-13.51Q-78.479-14.03 -77.899-14.43Q-77.329-14.83 -76.579-15.07Q-75.829-15.31 -74.879-15.31L-74.879-15.31L-68.239-15.31Q-67.709-15.31 -67.129-15.19Q-66.539-15.07 -65.969-14.81Q-65.389-14.56 -64.869-14.15Q-64.339-13.75 -63.949-13.18Q-63.549-12.6 -63.309-11.85Q-63.069-11.1 -63.069-10.15L-63.069-10.15ZM-46.307-15.31L-46.307-11.63L-54.587-11.63Q-55.337-11.63 -55.717-11.25Q-56.107-10.88 -56.107-10.15L-56.107-10.15L-56.107 0L-59.787 0L-59.787-10.15Q-59.787-11.1 -59.547-11.85Q-59.307-12.6 -58.897-13.18Q-58.497-13.75 -57.967-14.15Q-57.447-14.56 -56.877-14.81Q-56.297-15.07 -55.717-15.19Q-55.127-15.31 -54.617-15.31L-54.617-15.31L-46.307-15.31ZM-27.287-10.15L-27.287-5.17Q-27.287-4.22 -27.527-3.46Q-27.767-2.7 -28.167-2.13Q-28.557-1.56 -29.087-1.15Q-29.607-0.75 -30.187-0.5Q-30.757-0.24 -31.347-0.12Q-31.927 0 -32.457 0L-32.457 0L-39.097 0Q-39.857 0 -40.767-0.27Q-41.677-0.54 -42.447-1.15Q-43.217-1.77 -43.737-2.75Q-44.247-3.74 -44.247-5.17L-44.247-5.17L-44.247-10.15Q-44.247-11.57 -43.737-12.55Q-43.217-13.54 -42.447-14.15Q-41.677-14.77 -40.767-15.04Q-39.857-15.31 -39.097-15.31L-39.097-15.31L-32.457-15.31Q-31.037-15.31 -30.047-14.8Q-29.057-14.29 -28.447-13.52Q-27.837-12.74 -27.567-11.84Q-27.287-10.93 -27.287-10.15L-27.287-10.15ZM-30.967-5.17L-30.967-10.12Q-30.967-10.89 -31.347-11.26Q-31.737-11.63 -32.457-11.63L-32.457-11.63L-39.067-11.63Q-39.807-11.63 -40.187-11.25Q-40.567-10.88 -40.567-10.15L-40.567-10.15L-40.567-5.17Q-40.567-4.45 -40.187-4.06Q-39.807-3.68 -39.067-3.68L-39.067-3.68L-32.457-3.68Q-31.707-3.68 -31.337-4.06Q-30.967-4.45 -30.967-5.17L-30.967-5.17ZM-0.115-18.73L-0.115 0L-3.825 0L-3.825-12.09L-10.355-0.61Q-10.595-0.17 -11.025 0.06Q-11.455 0.28 -11.955 0.28L-11.955 0.28Q-12.435 0.28 -12.855 0.06Q-13.265-0.17 -13.505-0.61L-13.505-0.61L-20.065-12.09L-20.065 0L-23.745 0L-23.745-18.73Q-23.745-19.37 -23.375-19.87Q-22.995-20.36 -22.385-20.53L-22.385-20.53Q-22.095-20.6 -21.795-20.58Q-21.495-20.56 -21.215-20.45Q-20.945-20.35 -20.715-20.16Q-20.485-19.97 -20.335-19.7L-20.335-19.7L-11.955-5.13L-3.565-19.7Q-3.245-20.23 -2.665-20.46Q-2.095-20.69 -1.475-20.53L-1.475-20.53Q-0.875-20.36 -0.495-19.87Q-0.115-19.37 -0.115-18.73L-0.115-18.73ZM 19.484-10.24L 19.484-5.07Q 19.484-4.3  19.214-3.42Q 18.944-2.53  18.344-1.78Q 17.744-1.02  16.774-0.51Q 15.804 0  14.414 0L 14.414 0L 7.774 0Q 7.014 0  6.124-0.27Q 5.244-0.54  4.484-1.14Q 3.724-1.74  3.214-2.71Q 2.704-3.68  2.704-5.07L 2.704-5.07Q 2.704-5.83  2.974-6.73Q 3.244-7.62  3.844-8.38Q 4.444-9.13  5.414-9.64Q 6.384-10.15  7.774-10.15L 7.774-10.15L 14.414-10.15L 14.414-6.64L 7.774-6.64Q 7.024-6.64  6.614-6.18Q 6.204-5.72  6.204-5.04L 6.204-5.04Q 6.204-4.32  6.674-3.92Q 7.154-3.51  7.804-3.51L 7.804-3.51L 14.414-3.51Q 15.164-3.51  15.574-3.96Q 15.984-4.42  15.984-5.1L 15.984-5.1L 15.984-10.24Q 15.984-10.96  15.544-11.38Q 15.094-11.81  14.414-11.81L 14.414-11.81L 6.334-11.81L 6.334-15.31L 14.414-15.31Q 15.184-15.31  16.064-15.04Q 16.954-14.77  17.704-14.17Q 18.464-13.57  18.974-12.6Q 19.484-11.63  19.484-10.24L 19.484-10.24ZM 37.45-3.68L 37.45 0L 27.47 0Q 26.71 0  25.8-0.27Q 24.89-0.54  24.12-1.15Q 23.35-1.77  22.83-2.75Q 22.32-3.74  22.32-5.17L 22.32-5.17L 22.32-10.15Q 22.32-10.68  22.44-11.26Q 22.56-11.84  22.81-12.41Q 23.07-12.98  23.47-13.51Q 23.87-14.03  24.45-14.43Q 25.02-14.83  25.77-15.07Q 26.52-15.31  27.47-15.31L 27.47-15.31L 37.45-15.31L 37.45-11.63L 27.47-11.63Q 26.75-11.63  26.37-11.26Q 26-10.89  26-10.12L 26-10.12L 26-5.17Q 26-4.45  26.38-4.06Q 26.76-3.68  27.5-3.68L 27.5-3.68L 37.45-3.68ZM 57.521-10.15L 57.521 0L 53.841 0L 53.841-10.15Q 53.841-10.88  53.471-11.25Q 53.101-11.63  52.361-11.63L 52.361-11.63L 45.721-11.63L 45.721-15.31L 52.361-15.31Q 52.891-15.31  53.471-15.19Q 54.051-15.07  54.621-14.81Q 55.201-14.56  55.721-14.15Q 56.241-13.75  56.641-13.18Q 57.041-12.6  57.281-11.85Q 57.521-11.1  57.521-10.15L 57.521-10.15ZM 44.241-21.78L 44.241 0L 40.551 0L 40.551-21.78L 44.241-21.78ZM 64.631-21.78L 64.631-18.45L 60.941-18.45L 60.941-21.78L 64.631-21.78ZM 64.631-15.31L 64.631 0L 60.941 0L 60.941-15.31L 64.631-15.31ZM 85.115-8.5L 85.115 0L 81.435 0L 81.435-8.5Q 81.435-9.22  81.185-9.79Q 80.935-10.37  80.515-10.78Q 80.085-11.19  79.515-11.41Q 78.945-11.63  78.275-11.63L 78.275-11.63L 71.835-11.63L 71.835 0L 68.155 0L 68.155-13.48Q 68.155-13.86  68.295-14.2Q 68.435-14.53  68.695-14.78Q 68.945-15.02  69.285-15.17Q 69.625-15.31  70.005-15.31L 70.005-15.31L 78.305-15.31Q 78.995-15.31  79.775-15.15Q 80.545-15  81.305-14.65Q 82.055-14.3  82.745-13.77Q 83.435-13.24  83.965-12.48Q 84.495-11.72  84.805-10.73Q 85.115-9.74  85.115-8.5L 85.115-8.5ZM 104.148-10.24L 104.148-5.07Q 104.148-4.3  103.878-3.42Q 103.608-2.53  103.008-1.78Q 102.408-1.02  101.438-0.51Q 100.468 0  99.078 0L 99.078 0L 92.438 0Q 91.678 0  90.788-0.27Q 89.908-0.54  89.148-1.14Q 88.388-1.74  87.878-2.71Q 87.368-3.68  87.368-5.07L 87.368-5.07Q 87.368-5.83  87.638-6.73Q 87.908-7.62  88.508-8.38Q 89.108-9.13  90.078-9.64Q 91.048-10.15  92.438-10.15L 92.438-10.15L 99.078-10.15L 99.078-6.64L 92.438-6.64Q 91.688-6.64  91.278-6.18Q 90.868-5.72  90.868-5.04L 90.868-5.04Q 90.868-4.32  91.338-3.92Q 91.818-3.51  92.468-3.51L 92.468-3.51L 99.078-3.51Q 99.828-3.51  100.238-3.96Q 100.648-4.42  100.648-5.1L 100.648-5.1L 100.648-10.24Q 100.648-10.96  100.208-11.38Q 99.758-11.81  99.078-11.81L 99.078-11.81L 90.998-11.81L 90.998-15.31L 99.078-15.31Q 99.848-15.31  100.728-15.04Q 101.618-14.77  102.368-14.17Q 103.128-13.57  103.638-12.6Q 104.148-11.63  104.148-10.24L 104.148-10.24Z"
        style="" />
</svg>